<?xml version="1.0" encoding="utf-8"?>
<!-- Generator: Adobe Illustrator 19.1.1, SVG Export Plug-In . SVG Version: 6.00 Build 0)  -->
<svg version="1.1" id="Capa_1" xmlns="http://www.w3.org/2000/svg" xmlns:xlink="http://www.w3.org/1999/xlink" x="0px" y="0px"
	 viewBox="0 0 250 257" style="enable-background:new 0 0 250 257;" xml:space="preserve">
<style type="text/css">
	.st0{fill:#FBFBFB;}
</style>
<g>
	<path class="st0" d="M156.8,227.8c-4.1-3-4.6-7.6-4.6-7.6l-1.5-9.9h-49.2l-1.5,9.9c0,0-0.4,4.6-4.5,7.6c-4.1,3-7.4,5.6-4.1,6.1
		c3.1,0.4,32.6,0,34.8,0c2.2,0,31.7,0.4,34.8,0C164.1,233.4,160.9,230.8,156.8,227.8z"/>
	<g>
		<path class="st0" d="M70.6,148.9c13.1-0.1,14.8-3.3,19.1-16.5c7.9-20.8,43.5,5.5,21.4,14.6C89.1,156.2,57.5,149,70.6,148.9z"/>
		<path class="st0" d="M205.4,11.7c-6.4-5.1-17-2.6-23.6,5.7l-67.4,95.8c-6.7,8.3-6.6,6.7-0.2,11.8c6.4,5.1,4.8,5.5,11.5-2.8
			l79.3-86.3C211.6,27.7,211.8,16.8,205.4,11.7z M188.1,23.1c0,0-1-1.1-4.3-3.8c4.9-8,14.6-6.6,14.6-6.6
			C189.2,18.2,188.1,23.1,188.1,23.1z"/>
	</g>
	<path class="st0" d="M235.3,44h-29.7l-13.1,14.3h38v114H21.5v-114h121.6l10-14.3H16.8c-5.2,0-9.5,4.3-9.5,9.5v137.8
		c0,5.2,4.3,9.5,9.5,9.5h218.6c5.2,0,9.5-4.3,9.5-9.5V53.5C244.8,48.3,240.6,44,235.3,44z"/>
</g>
</svg>
